<svg xmlns="http://www.w3.org/2000/svg" xmlns:xlink="http://www.w3.org/1999/xlink" width="165.376" height="38.875" viewBox="0 0 165.376 38.875">
  <defs>
    <clipPath id="clip-path">
      <rect id="Rettangolo_129" data-name="Rettangolo 129" width="165.376" height="38.875" fill="none"/>
    </clipPath>
  </defs>
  <g id="Raggruppa_21" data-name="Raggruppa 21" transform="translate(0 0)">
    <rect id="Rettangolo_128" data-name="Rettangolo 128" width="5.849" height="28.232" transform="translate(0 4.982)" fill="#0b4395"/>
    <path id="Tracciato_7" data-name="Tracciato 7" d="M13.743,0V15.576H6.47v5.479h7.273v17.82h5.849V0Z" transform="translate(1.381 0)" fill="#0b4395"/>
    <g id="Raggruppa_20" data-name="Raggruppa 20" transform="translate(0 0)">
      <g id="Raggruppa_19" data-name="Raggruppa 19" clip-path="url(#clip-path)">
        <path id="Tracciato_8" data-name="Tracciato 8" d="M65.7,9.6h3.876a2.645,2.645,0,0,1,1.058.223,2.722,2.722,0,0,1,0,4.969,2.635,2.635,0,0,1-1.058.224H67.705V20.16H72a3.357,3.357,0,0,1,2.2.829,3.36,3.36,0,0,1,0,5.156,3.357,3.357,0,0,1-1.98.806h-4.52v5.275H72a8.632,8.632,0,0,0,8.607-8.607,8.495,8.495,0,0,0-.882-3.774,8.57,8.57,0,0,0-4.163-4.058c.14-.137.265-.274.381-.413a6.839,6.839,0,0,0,.868-1.325A6.71,6.71,0,0,0,77.544,11a6.817,6.817,0,0,0-.216-1.673,6.651,6.651,0,0,0-.513-1.378,6.8,6.8,0,0,0-6.093-3.758h-10.8V32.225H65.7Z" transform="translate(12.788 0.894)" fill="#0b4395"/>
        <path id="Tracciato_9" data-name="Tracciato 9" d="M49.114,32.341h5.847V9.574h6.176V4.1h-18.2V9.574h6.176Z" transform="translate(9.163 0.875)" fill="#0b4395"/>
        <path id="Tracciato_10" data-name="Tracciato 10" d="M122.553,33.216H128.4V18.586l9.139-13.3h0L141.173,0h-6.8l-7.3,10.625h0l-1.593,2.315L120.218,5.29h-6.8l9.138,13.3Z" transform="translate(24.203 0)" fill="#0b4395"/>
        <path id="Tracciato_11" data-name="Tracciato 11" d="M34.288,33.335A15.163,15.163,0,0,0,49.61,18.372a15.325,15.325,0,0,0-30.641,0A15.161,15.161,0,0,0,34.288,33.335m.812-23.7.008.015a.349.349,0,0,0,.106.1l.013.006a.987.987,0,0,0,.187.086,1.238,1.238,0,0,0,.369.061.965.965,0,0,0,.237-.029.148.148,0,0,0,.07-.044l.022-.021.019-.021a8.9,8.9,0,0,1,.993.265.225.225,0,0,0,.012.178.639.639,0,0,0,.13.178,1.041,1.041,0,0,0,.562.254.51.51,0,0,0,.075.006.656.656,0,0,0,.142-.017.237.237,0,0,0,.163-.113.294.294,0,0,0,.019-.047,8.9,8.9,0,0,1,.877.483.288.288,0,0,0,.01.223.114.114,0,0,0,.015.027c.008.013.017.032.029.049a1.108,1.108,0,0,0,.439.377.891.891,0,0,0,.228.07.311.311,0,0,0,.047,0,.235.235,0,0,0,.171-.069l0-.007a8.932,8.932,0,0,1,.764.7c0,.011.01.023.015.034a1.273,1.273,0,0,0,.425.481.3.3,0,0,0,.042.024,8.793,8.793,0,0,1,1.029,1.564.25.25,0,0,0-.137.183.3.3,0,0,0-.006.042,1.022,1.022,0,0,0,.092.5l0,.008.016.034c.015.033.033.072.052.11a.849.849,0,0,0,.209.258.281.281,0,0,0,.175.069.236.236,0,0,0,.076-.013.157.157,0,0,0,.019-.011,8.591,8.591,0,0,1,.388,1.724.262.262,0,0,0-.081.161l-.007.041a.984.984,0,0,0-.01.419l.012.059c.015.062.028.126.05.192a.267.267,0,0,0,.1.141,8.386,8.386,0,0,1-.053.929.223.223,0,0,0-.1-.052.234.234,0,0,0-.2.062.442.442,0,0,0-.091.11,1.053,1.053,0,0,0-.13.58.662.662,0,0,0,.058.25.228.228,0,0,0,.157.142.205.205,0,0,0,.114-.007,8.459,8.459,0,0,1-.341,1.088.237.237,0,0,0-.121-.135.255.255,0,0,0-.239.015.358.358,0,0,0-.069.049,1,1,0,0,0-.312.624.653.653,0,0,0,.006.193.242.242,0,0,0,.115.177.223.223,0,0,0,.118.032.37.37,0,0,0,.068-.008,8.827,8.827,0,0,1-.565.915.238.238,0,0,0-.2-.034.4.4,0,0,0-.056.021l-.008,0a.707.707,0,0,0-.289.227l-.019.024a.932.932,0,0,0-.2.381.268.268,0,0,0,.052.271,9.048,9.048,0,0,1-2.99,2.136.986.986,0,0,0-.482.089l-.024.008c-.023.01-.046.018-.069.029a.916.916,0,0,0-.283.2,9.232,9.232,0,0,1-.9.244.61.61,0,0,0,.2-.158.322.322,0,0,0,.075-.263.311.311,0,0,0-.16-.21.713.713,0,0,0-.205-.078,1.043,1.043,0,0,0-.6.062l-.007,0a.727.727,0,0,0-.314.221.294.294,0,0,0,0,.379.472.472,0,0,0,.3.159l.028,0a9.215,9.215,0,0,1-1.251.087c-.286,0-.572-.015-.851-.04a.382.382,0,0,0-.127-.115,1.054,1.054,0,0,0-.575-.143.823.823,0,0,0-.141.015l-.049.007a.118.118,0,0,0-.04.012.361.361,0,0,0-.1.068,9.172,9.172,0,0,1-.995-.268.049.049,0,0,0,.008-.023.242.242,0,0,0-.041-.2.63.63,0,0,0-.124-.142,1.094,1.094,0,0,0-.5-.229.472.472,0,0,0-.286.019.246.246,0,0,0-.14.142,9.14,9.14,0,0,1-.881-.488.209.209,0,0,0,.01-.123.611.611,0,0,0-.066-.171.884.884,0,0,0-.267-.273.854.854,0,0,0-.359-.169.244.244,0,0,0-.245.069,9.094,9.094,0,0,1-.771-.711,1.261,1.261,0,0,0-.447-.516.273.273,0,0,0-.025-.015,8.89,8.89,0,0,1-1.024-1.557.236.236,0,0,0,.136-.206.67.67,0,0,0,0-.146,1.383,1.383,0,0,0-.192-.564.66.66,0,0,0-.211-.238.252.252,0,0,0-.231-.029l0,0A8.5,8.5,0,0,1,25.36,19.4a.322.322,0,0,0,.08-.152,1.278,1.278,0,0,0-.029-.675l0-.013,0-.012a.281.281,0,0,0-.046-.092.455.455,0,0,0-.059-.059v-.021a8.816,8.816,0,0,1,.046-.9.2.2,0,0,0,.107.049l.028,0a.242.242,0,0,0,.177-.085.639.639,0,0,0,.114-.175,1.087,1.087,0,0,0,.091-.454,1,1,0,0,0-.015-.164c0-.019,0-.039-.008-.059a.116.116,0,0,0-.022-.063L25.8,16.5a.248.248,0,0,0-.178-.136.227.227,0,0,0-.091,0,8.576,8.576,0,0,1,.331-1.068.254.254,0,0,0,.16.146.2.2,0,0,0,.064.01.262.262,0,0,0,.152-.051,1.026,1.026,0,0,0,.365-.8.275.275,0,0,0-.169-.261.24.24,0,0,0-.132-.008,8.812,8.812,0,0,1,.55-.9h0a.209.209,0,0,0,.127.041.407.407,0,0,0,.141-.033l.023-.013a.917.917,0,0,0,.332-.319.8.8,0,0,0,.155-.363.269.269,0,0,0-.056-.217,9,9,0,0,1,1.926-1.59,1.02,1.02,0,0,0-.4.379.547.547,0,0,0-.059.181.29.29,0,0,0,.057.231.328.328,0,0,0,.222.123.673.673,0,0,0,.068,0,.956.956,0,0,0,.336-.074.122.122,0,0,0,.025-.012l.042-.024a1.492,1.492,0,0,0,.181-.115.8.8,0,0,0,.313-.432.308.308,0,0,0-.035-.252.311.311,0,0,0-.21-.137.478.478,0,0,0-.149-.006.993.993,0,0,0-.391.133,9.109,9.109,0,0,1,1.028-.544.431.431,0,0,0,.069.006.328.328,0,0,0,.059,0c.083-.015.166-.033.238-.05l.072-.017a.19.19,0,0,0,.034-.012c.03-.017.059-.03.086-.044a1.421,1.421,0,0,0,.18-.1.894.894,0,0,0,.131-.116c.286-.095.58-.176.876-.243a.677.677,0,0,0-.188.153.312.312,0,0,0,.1.5.747.747,0,0,0,.353.08l.072,0a1.1,1.1,0,0,0,.6-.206.381.381,0,0,0,.176-.3.346.346,0,0,0-.254-.317,1,1,0,0,0-.135-.034,9.23,9.23,0,0,1,1.277-.09c.274,0,.547.013.817.038" transform="translate(4.048 0.728)" fill="#0b4395"/>
        <path id="Tracciato_12" data-name="Tracciato 12" d="M112.2,4.359h-5.941l.029.075-10.91,27.55-.119.3h5.881l8.087-20.425,2.933,7.4h-3.882l-2.117,5.479h8.167l2.987,7.544H123.2L112.175,4.434Z" transform="translate(20.33 0.93)" fill="#0b4395"/>
        <path id="Tracciato_13" data-name="Tracciato 13" d="M91.926,24.974V37.325h4.032l.24.034v-.034h1.708V23.618a8.5,8.5,0,0,0-.882-3.775,8.644,8.644,0,0,0-1.683-2.352,8.784,8.784,0,0,0-1.666-1.285,6.748,6.748,0,0,0,2.219-6.884,6.888,6.888,0,0,0-.512-1.378,6.78,6.78,0,0,0-6.093-3.758h-10.8V32.225h5.776V9.6h3.874a2.642,2.642,0,0,1,1.059.223,2.722,2.722,0,0,1,0,4.968,2.617,2.617,0,0,1-1.059.226H86.277V20.16h2.637c1.332.035,3.012.632,3.012,4.814" transform="translate(16.751 0.894)" fill="#0b4395"/>
        <path id="Tracciato_14" data-name="Tracciato 14" d="M31.326,14.863a1.159,1.159,0,0,0-.639.627,1.191,1.191,0,0,0,0,.909,1.172,1.172,0,0,0,1.087.747,1.206,1.206,0,0,0,.436-.084,1.163,1.163,0,0,0,.649-.631,1.19,1.19,0,0,0-1.528-1.569" transform="translate(6.529 3.154)" fill="#0b4395"/>
        <path id="Tracciato_15" data-name="Tracciato 15" d="M33.7,13.3a1.092,1.092,0,0,0-.838-.676,1.026,1.026,0,0,0-.834.2,1,1,0,0,0-.167,1.405,1.083,1.083,0,0,0,.646.417,1.218,1.218,0,0,0,.267.03,1.005,1.005,0,0,0,.931-1.371l0-.008" transform="translate(6.755 2.691)" fill="#0b4395"/>
        <path id="Tracciato_16" data-name="Tracciato 16" d="M30.344,15.484a1.124,1.124,0,0,0,.125-.8.986.986,0,0,0-.223-.449.931.931,0,0,0-.513-.32,1,1,0,0,0-.984.3,1.086,1.086,0,0,0-.149,1.326,1,1,0,0,0,.855.481.923.923,0,0,0,.363-.073l.01,0,.04-.019a1.212,1.212,0,0,0,.109-.058,1.136,1.136,0,0,0,.368-.385" transform="translate(6.069 2.964)" fill="#0b4395"/>
        <path id="Tracciato_17" data-name="Tracciato 17" d="M33.089,17.356a.876.876,0,0,0,.353.448.978.978,0,0,0,.552.175,1.074,1.074,0,0,0,.713-1.842.977.977,0,0,0-1.273-.053,1.094,1.094,0,0,0-.346,1.273" transform="translate(7.044 3.388)" fill="#0b4395"/>
        <path id="Tracciato_18" data-name="Tracciato 18" d="M30.605,19.213a1.116,1.116,0,0,0,.226.024,1,1,0,0,0,.521-.146.93.93,0,0,0,.426-.524.989.989,0,0,0-.1-.832,1.1,1.1,0,0,0-1.368-.447l-.006,0a.951.951,0,0,0-.542.667.978.978,0,0,0,.123.743,1.068,1.068,0,0,0,.717.512" transform="translate(6.347 3.672)" fill="#0b4395"/>
        <path id="Tracciato_19" data-name="Tracciato 19" d="M29.433,12.745a.848.848,0,0,0,.364.762,1.026,1.026,0,0,0,.61.205.982.982,0,0,0,.341-.061h0a1.084,1.084,0,0,0,.722-.784.9.9,0,0,0-.154-.726.961.961,0,0,0-.687-.383,1.11,1.11,0,0,0-.678.153,1,1,0,0,0-.523.835" transform="translate(6.281 2.508)" fill="#0b4395"/>
        <path id="Tracciato_20" data-name="Tracciato 20" d="M34.045,14.142A1.1,1.1,0,0,0,34.8,15.67a1.087,1.087,0,0,0,.175.016.85.85,0,0,0,.666-.32.96.96,0,0,0,.211-.766,1.083,1.083,0,0,0-.562-.846.894.894,0,0,0-.711-.078.881.881,0,0,0-.53.466" transform="translate(7.243 2.91)" fill="#0b4395"/>
        <path id="Tracciato_21" data-name="Tracciato 21" d="M33.838,19.653a.918.918,0,0,0,.206-.587.9.9,0,0,0-.715-.88,1.083,1.083,0,0,0-.817.127,1,1,0,0,0-.482,1.044.879.879,0,0,0,.534.636,1,1,0,0,0,.4.086,1.051,1.051,0,0,0,.423-.092.989.989,0,0,0,.449-.334" transform="translate(6.831 3.875)" fill="#0b4395"/>
        <path id="Tracciato_22" data-name="Tracciato 22" d="M29.438,17.691a1.078,1.078,0,0,0,.012-.842l-.008-.019c-.01-.017-.018-.033-.027-.05-.022-.04-.045-.083-.073-.125a.954.954,0,0,0-.957-.465.841.841,0,0,0-.687.545,1,1,0,0,0-.034.693,1.031,1.031,0,0,0,.8.777.9.9,0,0,0,.18.018.868.868,0,0,0,.794-.531" transform="translate(5.894 3.453)" fill="#0b4395"/>
        <path id="Tracciato_23" data-name="Tracciato 23" d="M32.792,12a1.031,1.031,0,0,0,.538.375,1.205,1.205,0,0,0,.341.053.59.59,0,0,0,.2-.032h0a.712.712,0,0,0,.53-.75A.838.838,0,0,0,34.2,11.2a1.021,1.021,0,0,0-1.128-.307.666.666,0,0,0-.436.531.748.748,0,0,0,.155.581" transform="translate(6.963 2.31)" fill="#0b4395"/>
        <path id="Tracciato_24" data-name="Tracciato 24" d="M26.959,13.46a1.01,1.01,0,0,0-.223,1.037l0,.011.016.039a.66.66,0,0,0,.615.417A.8.8,0,0,0,28,14.654a.988.988,0,0,0,.214-.408.917.917,0,0,0-.036-.656.669.669,0,0,0-.854-.371.85.85,0,0,0-.362.241" transform="translate(5.694 2.812)" fill="#0b4395"/>
        <path id="Tracciato_25" data-name="Tracciato 25" d="M35.857,18.628a.742.742,0,0,0,.278-.056.923.923,0,0,0,.444-.39.958.958,0,0,0,.08-.892.642.642,0,0,0-.527-.416.764.764,0,0,0-.673.261,1.042,1.042,0,0,0-.283.626.853.853,0,0,0,.1.5.657.657,0,0,0,.585.362" transform="translate(7.506 3.6)" fill="#0b4395"/>
        <path id="Tracciato_26" data-name="Tracciato 26" d="M30.776,20.067a.829.829,0,0,0-.28-.442,1.027,1.027,0,0,0-.75-.257.735.735,0,0,0-.545.265.665.665,0,0,0-.1.687l.006.015a.99.99,0,0,0,.465.481,1.069,1.069,0,0,0,.462.115.86.86,0,0,0,.442-.124.633.633,0,0,0,.3-.739" transform="translate(6.2 4.133)" fill="#0b4395"/>
        <path id="Tracciato_27" data-name="Tracciato 27" d="M35.616,13.454a.761.761,0,0,0,.09.006.619.619,0,0,0,.625-.529.87.87,0,0,0-.059-.477l0,0A1.032,1.032,0,0,0,35.5,11.8a.619.619,0,0,0-.6.2.687.687,0,0,0-.148.545,1.069,1.069,0,0,0,.871.9" transform="translate(7.414 2.517)" fill="#0b4395"/>
        <path id="Tracciato_28" data-name="Tracciato 28" d="M30.511,10.838a.641.641,0,0,0,.26.5.953.953,0,0,0,.6.205,1.31,1.31,0,0,0,.405-.069h0a.821.821,0,0,0,.373-.272.606.606,0,0,0,.1-.626.7.7,0,0,0-.382-.39,1.024,1.024,0,0,0-1.124.153.637.637,0,0,0-.234.5" transform="translate(6.511 2.152)" fill="#0b4395"/>
        <path id="Tracciato_29" data-name="Tracciato 29" d="M27.979,12.756a.682.682,0,0,0,.292.064.867.867,0,0,0,.146-.013,1.026,1.026,0,0,0,.671-.431.837.837,0,0,0,.169-.641.583.583,0,0,0-.382-.473.775.775,0,0,0-.609.024.958.958,0,0,0-.4.28.881.881,0,0,0-.245.664.6.6,0,0,0,.357.525" transform="translate(5.894 2.393)" fill="#0b4395"/>
        <path id="Tracciato_30" data-name="Tracciato 30" d="M27.36,16.505a1.041,1.041,0,0,0-.149-.891.644.644,0,0,0-1.159.107,1.083,1.083,0,0,0-.013.858l0,.008a.858.858,0,0,0,.313.393.632.632,0,0,0,.343.109.605.605,0,0,0,.278-.07.757.757,0,0,0,.383-.514" transform="translate(5.539 3.265)" fill="#0b4395"/>
        <path id="Tracciato_31" data-name="Tracciato 31" d="M36.169,15.045a1.059,1.059,0,0,0-.089.942l0,.006a.909.909,0,0,0,.207.313.635.635,0,0,0,.454.2.59.59,0,0,0,.309-.087.792.792,0,0,0,.363-.548,1.04,1.04,0,0,0-.144-.792.654.654,0,0,0-.642-.332.614.614,0,0,0-.461.3" transform="translate(7.685 3.145)" fill="#0b4395"/>
        <path id="Tracciato_32" data-name="Tracciato 32" d="M35.573,20.186a.907.907,0,0,0,.223-.564.629.629,0,0,0-.374-.586.819.819,0,0,0-.669.036,1.027,1.027,0,0,0-.44.39.84.84,0,0,0-.138.565.6.6,0,0,0,.44.5.729.729,0,0,0,.2.028.916.916,0,0,0,.351-.076.977.977,0,0,0,.4-.3" transform="translate(7.292 4.051)" fill="#0b4395"/>
        <path id="Tracciato_33" data-name="Tracciato 33" d="M32.4,20.282a.991.991,0,0,0-1.037.216.589.589,0,0,0-.192.516.689.689,0,0,0,.434.551,1.079,1.079,0,0,0,.431.092.932.932,0,0,0,.328-.058h0a.867.867,0,0,0,.413-.284.6.6,0,0,0,.074-.655.736.736,0,0,0-.454-.376" transform="translate(6.651 4.316)" fill="#0b4395"/>
        <path id="Tracciato_34" data-name="Tracciato 34" d="M27.782,18.345a.592.592,0,0,0-.656.444.791.791,0,0,0,.047.529.972.972,0,0,0,.282.409.894.894,0,0,0,.523.243.707.707,0,0,0,.072,0,.606.606,0,0,0,.421-.16.65.65,0,0,0,.194-.511.914.914,0,0,0-.113-.4.978.978,0,0,0-.769-.556" transform="translate(5.783 3.914)" fill="#0b4395"/>
        <path id="Tracciato_35" data-name="Tracciato 35" d="M29.038,10.9a.829.829,0,0,0,.251.038,1.035,1.035,0,0,0,.251-.033,1,1,0,0,0,.687-.516.5.5,0,0,0,.041-.392.483.483,0,0,0-.256-.282.805.805,0,0,0-.258-.073.931.931,0,0,0-.468.062h0a1.023,1.023,0,0,0-.447.3.768.768,0,0,0-.125.188.5.5,0,0,0-.017.422.532.532,0,0,0,.343.284" transform="translate(6.115 2.056)" fill="#0b4395"/>
        <path id="Tracciato_36" data-name="Tracciato 36" d="M36.665,13.917a1.056,1.056,0,0,0,.416.487.533.533,0,0,0,.272.076.486.486,0,0,0,.171-.032.5.5,0,0,0,.292-.331.971.971,0,0,0-.007-.561,1.079,1.079,0,0,0-.386-.573.538.538,0,0,0-.448-.113.484.484,0,0,0-.364.366,1.064,1.064,0,0,0,.047.665l.006.015" transform="translate(7.806 2.744)" fill="#0b4395"/>
        <path id="Tracciato_37" data-name="Tracciato 37" d="M34.417,20.855a.983.983,0,0,0-.683.028l-.008,0a.966.966,0,0,0-.506.431.484.484,0,0,0-.019.481.523.523,0,0,0,.359.258.882.882,0,0,0,.218.027,1.069,1.069,0,0,0,.444-.1.912.912,0,0,0,.487-.457.485.485,0,0,0-.291-.667" transform="translate(7.073 4.44)" fill="#0b4395"/>
        <path id="Tracciato_38" data-name="Tracciato 38" d="M26.735,17.929a1.081,1.081,0,0,0-.443-.557.514.514,0,0,0-.428-.047.485.485,0,0,0-.283.3.8.8,0,0,0-.046.347,1.185,1.185,0,0,0,.148.488.877.877,0,0,0,.405.4.533.533,0,0,0,.222.051.429.429,0,0,0,.183-.04.517.517,0,0,0,.273-.339,1,1,0,0,0-.029-.6l0-.007" transform="translate(5.449 3.692)" fill="#0b4395"/>
        <path id="Tracciato_39" data-name="Tracciato 39" d="M33.593,10.386a1.079,1.079,0,0,0,.665.292h.055a.635.635,0,0,0,.33-.089.4.4,0,0,0,.148-.522l-.008-.017-.015-.028a.708.708,0,0,0-.046-.079,1,1,0,0,0-.984-.381.413.413,0,0,0-.332.5.633.633,0,0,0,.188.319" transform="translate(7.126 2.037)" fill="#0b4395"/>
        <path id="Tracciato_40" data-name="Tracciato 40" d="M25.566,14.019a.377.377,0,0,0,.265.112.439.439,0,0,0,.183-.042.627.627,0,0,0,.308-.257,1,1,0,0,0,.2-.737.428.428,0,0,0-.7-.311.856.856,0,0,0-.248.26.962.962,0,0,0-.144.722.484.484,0,0,0,.136.254" transform="translate(5.423 2.708)" fill="#0b4395"/>
        <path id="Tracciato_41" data-name="Tracciato 41" d="M37.683,17.68a.405.405,0,0,0-.324-.01.7.7,0,0,0-.218.14,1.018,1.018,0,0,0-.317.72.59.59,0,0,0,.112.374.363.363,0,0,0,.3.152.53.53,0,0,0,.192-.039l.018-.008.045-.023.058-.039a.93.93,0,0,0,.346-.519.823.823,0,0,0,0-.478.431.431,0,0,0-.22-.268" transform="translate(7.858 3.765)" fill="#0b4395"/>
        <path id="Tracciato_42" data-name="Tracciato 42" d="M29.54,21.127a.959.959,0,0,0-.533-.109.468.468,0,0,0-.346.174.392.392,0,0,0-.039.417.76.76,0,0,0,.315.353.987.987,0,0,0,.521.165.828.828,0,0,0,.2-.024.427.427,0,0,0,.3-.238.435.435,0,0,0-.035-.391.872.872,0,0,0-.382-.347" transform="translate(6.099 4.485)" fill="#0b4395"/>
        <path id="Tracciato_43" data-name="Tracciato 43" d="M35.511,11.336a.939.939,0,0,0,.621.326.236.236,0,0,0,.041,0,.4.4,0,0,0,.278-.107.377.377,0,0,0,.109-.3A.837.837,0,0,0,36.491,11a.915.915,0,0,0-.284-.357.8.8,0,0,0-.593-.21.364.364,0,0,0-.337.336.56.56,0,0,0,.047.29.865.865,0,0,0,.187.28" transform="translate(7.528 2.225)" fill="#0b4395"/>
        <path id="Tracciato_44" data-name="Tracciato 44" d="M31.817,9.819a1.064,1.064,0,0,0,.421.09h.028a.809.809,0,0,0,.457-.119.376.376,0,0,0,.152-.542.57.57,0,0,0-.183-.186,1.053,1.053,0,0,0-.91-.087.215.215,0,0,0-.038.018.237.237,0,0,1-.032.021,1.07,1.07,0,0,0-.119.085.372.372,0,0,0-.057.5.652.652,0,0,0,.28.222" transform="translate(6.715 1.902)" fill="#0b4395"/>
        <path id="Tracciato_45" data-name="Tracciato 45" d="M26.6,12.215c.025,0,.05,0,.073,0a.486.486,0,0,0,.218-.05,1.068,1.068,0,0,0,.539-.55.687.687,0,0,0,.062-.331.369.369,0,0,0-.224-.328.438.438,0,0,0-.329-.006,1.021,1.021,0,0,0-.608.576.658.658,0,0,0-.053.363.372.372,0,0,0,.323.32" transform="translate(5.606 2.332)" fill="#0b4395"/>
        <path id="Tracciato_46" data-name="Tracciato 46" d="M25.728,14.935l-.01-.027-.011-.022a.415.415,0,0,0-.046-.083.408.408,0,0,0-.392-.205.419.419,0,0,0-.283.177.98.98,0,0,0-.181.727.818.818,0,0,0,.119.357.418.418,0,0,0,.325.21h.018a.392.392,0,0,0,.306-.16,1.024,1.024,0,0,0,.154-.974" transform="translate(5.292 3.115)" fill="#0b4395"/>
        <path id="Tracciato_47" data-name="Tracciato 47" d="M37.645,16.051l-.01.029a1.944,1.944,0,0,0-.063.216.979.979,0,0,0,.04.521l.006.012.011.027a.537.537,0,0,0,.042.083.439.439,0,0,0,.279.209.316.316,0,0,0,.058.006.4.4,0,0,0,.235-.085.6.6,0,0,0,.167-.2.992.992,0,0,0,.112-.641.677.677,0,0,0-.2-.427.371.371,0,0,0-.479-.023.569.569,0,0,0-.2.269" transform="translate(8.014 3.352)" fill="#0b4395"/>
        <path id="Tracciato_48" data-name="Tracciato 48" d="M36.686,19.524a.674.674,0,0,0-.329.108.973.973,0,0,0-.479.723.393.393,0,0,0,.388.438.533.533,0,0,0,.221-.053.993.993,0,0,0,.585-.684.439.439,0,0,0-.022-.3.351.351,0,0,0-.364-.231" transform="translate(7.656 4.167)" fill="#0b4395"/>
        <path id="Tracciato_49" data-name="Tracciato 49" d="M31.449,21.807a1.039,1.039,0,0,0-.649.015h0l-.015.006a.331.331,0,0,0-.074.033.375.375,0,0,0-.171.542.56.56,0,0,0,.159.172.95.95,0,0,0,.562.161h.032a.793.793,0,0,0,.448-.133.4.4,0,0,0,.174-.268.38.38,0,0,0-.081-.29.718.718,0,0,0-.379-.239" transform="translate(6.504 4.644)" fill="#0b4395"/>
        <path id="Tracciato_50" data-name="Tracciato 50" d="M27.586,20.15a.757.757,0,0,0-.376-.1h0a.379.379,0,0,0-.28.118.37.37,0,0,0-.095.283,1.017,1.017,0,0,0,.022.131c0,.016.007.033.01.049l.01.029a1.073,1.073,0,0,0,.661.582.576.576,0,0,0,.154.022.5.5,0,0,0,.119-.015.347.347,0,0,0,.279-.317.564.564,0,0,0-.053-.3,1.1,1.1,0,0,0-.449-.473" transform="translate(5.726 4.278)" fill="#0b4395"/>
        <path id="Tracciato_51" data-name="Tracciato 51" d="M36.935,12.093a.157.157,0,0,0,.019.05c.018.028.035.057.052.086a2.142,2.142,0,0,0,.131.2.8.8,0,0,0,.377.28.363.363,0,0,0,.116.021.3.3,0,0,0,.152-.04.311.311,0,0,0,.147-.21.533.533,0,0,0,.006-.181,1.105,1.105,0,0,0-.2-.49.931.931,0,0,0-.353-.317.352.352,0,0,0-.357.008.339.339,0,0,0-.138.324,1.56,1.56,0,0,0,.033.2c.006.025.011.051.016.075" transform="translate(7.871 2.443)" fill="#0b4395"/>
        <path id="Tracciato_52" data-name="Tracciato 52" d="M25.258,16.8a.828.828,0,0,0-.21-.307.321.321,0,0,0-.254-.078.3.3,0,0,0-.207.136.71.71,0,0,0-.089.218,1.055,1.055,0,0,0,.056.6.737.737,0,0,0,.237.363.326.326,0,0,0,.2.072.242.242,0,0,0,.051,0,.3.3,0,0,0,.2-.14.707.707,0,0,0,.086-.217,1.155,1.155,0,0,0-.066-.63l0-.013" transform="translate(5.224 3.504)" fill="#0b4395"/>
        <path id="Tracciato_53" data-name="Tracciato 53" d="M38.066,14.926a.759.759,0,0,0,.221.311.339.339,0,0,0,.2.073.279.279,0,0,0,.055-.006.307.307,0,0,0,.2-.15.72.72,0,0,0,.08-.21,1.013,1.013,0,0,0-.036-.519.813.813,0,0,0-.234-.4.331.331,0,0,0-.265-.085.3.3,0,0,0-.205.135A.656.656,0,0,0,38,14.28a1.149,1.149,0,0,0,.062.635l0,.011" transform="translate(8.105 2.974)" fill="#0b4395"/>
        <path id="Tracciato_54" data-name="Tracciato 54" d="M35.77,21.131a.732.732,0,0,0-.332.062h0a1.162,1.162,0,0,0-.362.229.725.725,0,0,0-.224.351.322.322,0,0,0,.035.25.3.3,0,0,0,.194.13.523.523,0,0,0,.109.01.88.88,0,0,0,.108-.007A.988.988,0,0,0,35.685,22a.893.893,0,0,0,.368-.4.331.331,0,0,0-.008-.313.335.335,0,0,0-.274-.153" transform="translate(7.435 4.509)" fill="#0b4395"/>
        <path id="Tracciato_55" data-name="Tracciato 55" d="M26.1,19.174a.656.656,0,0,0-.279-.167.326.326,0,0,0-.269.038.32.32,0,0,0-.131.232.769.769,0,0,0,.061.363l.008.019.028.053c.023.044.046.087.073.13a1.07,1.07,0,0,0,.112.152.8.8,0,0,0,.324.229.355.355,0,0,0,.12.022.29.29,0,0,0,.157-.044.314.314,0,0,0,.142-.232.474.474,0,0,0,0-.155,1.143,1.143,0,0,0-.345-.639" transform="translate(5.425 4.054)" fill="#0b4395"/>
      </g>
    </g>
  </g>
</svg>
